HIERARCHY
ROOT Hips
{
    OFFSET 0.000000 0.000000 0.000000
    CHANNELS 6 Xposition Yposition Zposition Zrotation Xrotation Yrotation
    JOINT Spine
    {
        OFFSET -0.000000 7.246840 0.000000
        CHANNELS 3 Zrotation Xrotation Yrotation
        JOINT Spine1
        {
            OFFSET -0.000000 20.289354 0.000000
            CHANNELS 3 Zrotation Xrotation Yrotation
            JOINT Neck
            {
                OFFSET -0.000000 20.206032 1.836912
                CHANNELS 3 Zrotation Xrotation Yrotation
                JOINT Head
                {
                    OFFSET -0.000000 12.372654 -1.767522
                    CHANNELS 3 Zrotation Xrotation Yrotation
                    End Site
                    {
                        OFFSET -0.000000 22.094025 0.000000
                    }
                }
            }
            JOINT LeftShoulder
            {
                OFFSET 3.465871 17.201674 -0.568930
                CHANNELS 3 Zrotation Xrotation Yrotation
                JOINT LeftArm
                {
                    OFFSET 14.070313 0.000000 0.000000
                    CHANNELS 3 Zrotation Xrotation Yrotation
                    JOINT LeftForeArm
                    {
                        OFFSET 26.549477 0.000000 0.000000
                        CHANNELS 3 Zrotation Xrotation Yrotation
                        JOINT LeftHand
                        {
                            OFFSET 18.880413 0.000000 0.000000
                            CHANNELS 3 Zrotation Xrotation Yrotation
                            End Site
                            {
                                OFFSET 13.256415 0.000000 0.000000
                            }
                        }
                    }
                }
            }
            JOINT RightShoulder
            {
                OFFSET -3.526370 17.201674 -0.568930
                CHANNELS 3 Zrotation Xrotation Yrotation
                JOINT RightArm
                {
                    OFFSET -14.070313 0.000000 0.000000
                    CHANNELS 3 Zrotation Xrotation Yrotation
                    JOINT RightForeArm
                    {
                        OFFSET -26.549477 0.000000 0.000000
                        CHANNELS 3 Zrotation Xrotation Yrotation
                        JOINT RightHand
                        {
                            OFFSET -18.880413 0.000000 0.000000
                            CHANNELS 3 Zrotation Xrotation Yrotation
                            End Site
                            {
                                OFFSET -13.256415 0.000000 0.000000
                            }
                        }
                    }
                }
            }
        }
    }
    JOINT LeftUpLeg
    {
        OFFSET 8.837609 0.000000 0.000000
        CHANNELS 3 Zrotation Xrotation Yrotation
        JOINT LeftLeg
        {
            OFFSET -0.000000 -41.345005 0.000000
            CHANNELS 3 Zrotation Xrotation Yrotation
            JOINT LeftFoot
            {
                OFFSET -0.000000 -35.500874 0.000000
                CHANNELS 3 Zrotation Xrotation Yrotation
                JOINT LeftToeBase
                {
                    OFFSET -0.000000 -5.744446 13.256415
                    CHANNELS 3 Zrotation Xrotation Yrotation
                    End Site
                    {
                        OFFSET -0.000000 0.000000 3.535044
                    }
                }
            }
        }
    }
    JOINT RightUpLeg
    {
        OFFSET -8.837609 0.000000 0.000000
        CHANNELS 3 Zrotation Xrotation Yrotation
        JOINT RightLeg
        {
            OFFSET -0.000000 -41.345005 0.000000
            CHANNELS 3 Zrotation Xrotation Yrotation
            JOINT RightFoot
            {
                OFFSET -0.000000 -35.500874 0.000000
                CHANNELS 3 Zrotation Xrotation Yrotation
                JOINT RightToeBase
                {
                    OFFSET -0.000000 -5.744446 13.256415
                    CHANNELS 3 Zrotation Xrotation Yrotation
                    End Site
                    {
                        OFFSET -0.000000 0.000000 3.535044
                    }
                }
            }
        }
    }
}
MOTION
Frames:    8
Frame Time:    0.010000
5.249962    82.337982    -11.172791    2.457941    3.222078    -1.261641    -0.642504    -14.220207    0.836950    -3.979646    3.109883    1.025237    2.057083    28.602686    -2.157769    2.948299    -9.630031    -1.334408    18.861078    0.971726    7.288706    -27.437887    7.170654    -14.125615    7.648455    -9.910026    -11.623895    -36.094791    -9.263434    0.380309    -14.655118    0.542666    13.600302    20.769585    8.468685    10.209586    -3.242139    -7.055106    2.735826    10.600302    -5.503201    15.891866    -1.501700    8.661616    2.675179    -1.394876    -10.262132    -5.351074    2.756464    1.272860    -0.615987    0.026667    -1.976863    -0.037785    -10.499289    3.514395    1.035203    6.453893    -4.769165    4.947012    3.790787    -3.554098    -6.535391    -1.222953    0.781205    2.174717    
5.255113    82.337997    -11.167880    2.457712    3.227521    -1.249324    -0.650353    -14.214679    0.829792    -3.958678    3.089305    1.017673    2.039242    28.593182    -2.154713    2.997360    -9.632277    -1.322505    18.852545    0.977541    7.273266    -27.421173    7.190752    -14.133265    7.734348    -10.491204    -11.526668    -36.302975    -9.789088    0.209142    -14.666668    0.568068    13.590729    20.803356    8.373083    10.240341    -3.257436    -6.981729    2.693493    10.524065    -5.436982    15.936187    -1.502388    8.659119    2.685713    -1.401867    -10.261681    -5.364468    2.777690    1.273280    -0.636789    0.019113    -1.968900    -0.027079    -10.502549    3.514831    1.030050    6.451467    -4.767652    4.936131    3.816413    -3.569401    -6.535299    -1.237405    0.801798    2.199930    
5.258770    82.338043    -11.164657    2.457304    3.242723    -1.239741    -0.658571    -14.220076    0.824052    -3.939207    3.075357    1.011988    2.031519    28.559212    -2.158033    3.039098    -9.606584    -1.318872    18.861261    0.960022    7.261020    -27.436975    7.173584    -14.128897    7.737094    -10.397521    -11.445133    -36.223011    -9.582633    -0.155650    -14.667599    0.575506    13.587413    20.766186    8.571090    10.217048    -3.247122    -7.062072    2.748418    10.457848    -5.527499    15.915195    -1.502002    8.647651    2.679263    -1.412200    -10.266406    -5.326746    2.774646    1.276503    -0.675112    0.024359    -1.982565    -0.034515    -10.503671    3.505347    1.009974    6.453426    -4.767584    4.948221    3.801175    -3.571766    -6.542035    -1.235392    0.788941    2.196653    
5.262885    82.337257    -11.160724    2.456138    3.251686    -1.233594    -0.673086    -14.217289    0.817982    -3.906922    3.060245    1.006361    2.059265    28.544422    -2.157613    3.019715    -9.621169    -1.319415    18.852089    0.967536    7.247406    -27.437952    7.146977    -14.119445    7.691741    -10.333636    -11.552332    -36.188236    -9.600410    0.106472    -14.665565    0.593926    13.573183    20.744051    8.590054    10.244962    -3.261095    -7.049815    2.718700    10.478246    -5.511792    15.926640    -1.497013    8.647098    2.659516    -1.427866    -10.272760    -5.306483    2.796081    1.276286    -0.686113    0.029462    -1.985329    -0.041747    -10.506938    3.502914    1.007305    6.459584    -4.770269    4.942217    3.800869    -3.563232    -6.527480    -1.221072    0.763170    2.171788    
5.266938    82.337440    -11.156332    2.456623    3.257459    -1.221166    -0.686925    -14.211614    0.808610    -3.877770    3.043409    0.997301    2.063718    28.530458    -2.159809    3.026550    -9.625071    -1.319791    18.849041    0.989431    7.252330    -27.464102    7.053721    -14.148063    7.686378    -10.347643    -11.558819    -36.180622    -9.616903    0.113806    -14.664583    0.588506    13.581244    20.717878    8.696627    10.225418    -3.273551    -7.084239    2.731582    10.529990    -5.539947    15.909964    -1.499837    8.645525    2.660380    -1.425449    -10.281872    -5.318033    2.780329    1.290120    -0.682880    0.041118    -1.992826    -0.058266    -10.508980    3.506226    1.015790    6.453856    -4.778698    4.906754    3.814007    -3.573228    -6.526139    -1.237460    0.775137    2.200651    
5.272407    82.337692    -11.152664    2.456616    3.269521    -1.210318    -0.695665    -14.208321    0.805129    -3.854658    3.024086    0.993665    2.072883    28.517574    -2.154431    3.040336    -9.639971    -1.309893    18.847895    1.006911    7.261809    -27.470078    7.028973    -14.191062    7.686985    -10.332864    -11.563344    -36.153446    -9.607333    0.131271    -14.666227    0.584182    13.578190    20.713522    8.725269    10.214818    -3.293503    -7.097759    2.724603    10.621377    -5.539082    15.923984    -1.502137    8.637795    2.654553    -1.415978    -10.293002    -5.341448    2.768209    1.293815    -0.673961    0.021702    -1.987964    -0.030751    -10.514812    3.499252    1.002614    6.458776    -4.774437    4.915614    3.811909    -3.570057    -6.526920    -1.233110    0.771503    2.193001    
5.276299    82.338150    -11.148848    2.453273    3.278215    -1.212942    -0.700330    -14.202410    0.806667    -3.825710    3.003287    0.994239    2.053413    28.492773    -2.142845    3.076522    -9.623846    -1.292995    18.829092    0.997917    7.254429    -27.449226    7.022276    -14.205310    7.691610    -10.340687    -11.555993    -36.122028    -9.611060    0.118505    -14.673739    0.576328    13.588413    20.712572    8.764837    10.186819    -3.314804    -7.147614    2.743401    10.733641    -5.572912    15.917244    -1.501909    8.635517    2.665683    -1.409550    -10.301180    -5.387845    2.769934    1.297775    -0.640181    0.013928    -1.969537    -0.019734    -10.510124    3.489394    0.988739    6.454849    -4.767206    4.916994    3.828850    -3.576931    -6.512544    -1.223299    0.764562    2.175716    
5.280181    82.339325    -11.145064    2.450819    3.287316    -1.202384    -0.707742    -14.196507    0.803370    -3.804525    2.984029    0.990623    2.069836    28.492065    -2.140405    3.084603    -9.652094    -1.285953    18.816912    1.038403    7.266503    -27.418297    7.011042    -14.278253    7.687775    -10.324574    -11.540439    -36.062416    -9.598584    0.125663    -14.672330    0.583854    13.593705    20.708996    8.743697    10.161846    -3.319222    -7.198374    2.750047    10.804063    -5.608096    15.975148    -1.496878    8.628263    2.663832    -1.432735    -10.292177    -5.350015    2.774413    1.292837    -0.685463    0.018795    -1.986767    -0.026632    -10.512953    3.484034    0.993939    6.456087    -4.765661    4.911616    3.836998    -3.575680    -6.531958    -1.241322    0.778229    2.207445    
